<svg width="24" height="24" viewBox="0 0 24 24" fill="none" xmlns="http://www.w3.org/2000/svg">
<circle cx="18" cy="16" r="3" fill="#75ADFC"/>
<path fill-rule="evenodd" clip-rule="evenodd" d="M2 10.9609C2 6.56426 6.83231 3 12.9359 3C19.0395 3 22.7597 6.56426 22.7597 10.9612C22.7597 11.3882 22.7246 11.8069 22.6556 12.2148C21.5555 10.8633 19.8785 10 18 10C14.6863 10 12 12.6863 12 16C12 17.0392 12.2642 18.0166 12.729 18.8689C12.3046 18.8476 11.8861 18.7657 11.4747 18.6852C11.2349 18.6383 10.9975 18.5918 10.7628 18.5582C7.92142 22.1503 3.44016 21.4437 3.44016 21.4437C6.60541 19.9455 6.54123 17.4642 5.97852 17.1336C3.49397 15.6739 2 13.4507 2 10.9609Z" fill="white"/>
</svg>
