<svg width="22" height="12" viewBox="0 0 22 12" fill="none" xmlns="http://www.w3.org/2000/svg">
<path fill-rule="evenodd" clip-rule="evenodd" d="M11 4C9.89533 4 9 4.89533 9 6C9 7.10467 9.89533 8 11 8C12.1047 8 13 7.10467 13 6C13 4.89533 12.1047 4 11 4ZM21.9979 5.96047C21.9976 5.95139 21.9966 5.94296 21.9959 5.93421C21.9955 5.92967 21.9948 5.92514 21.9942 5.92092C21.9942 5.91444 21.9928 5.90828 21.9914 5.90212C21.9907 5.89467 21.99 5.88721 21.9887 5.88008C21.988 5.87911 21.988 5.87814 21.988 5.87716C21.9612 5.71315 21.8807 5.55919 21.758 5.44089C21.0561 4.63834 20.2212 3.92396 19.3726 3.27181C17.5446 1.86606 15.4534 0.690447 13.1457 0.216894C11.8113 -0.0566711 10.4694 -0.0680156 9.12821 0.163413C7.90833 0.373773 6.73279 0.811671 5.63253 1.35426C3.91012 2.20348 2.33724 3.37391 0.966811 4.68631C0.713142 4.92909 0.460849 5.17704 0.230209 5.44089C-0.0767365 5.79192 -0.0767365 6.2081 0.230209 6.55946C0.932095 7.362 1.76666 8.07573 2.61566 8.72821C4.44427 10.134 6.53515 11.3092 8.84326 11.7828C10.1773 12.0564 11.5202 12.0684 12.8607 11.8366C14.0802 11.6259 15.2558 11.1883 16.3567 10.6461C18.0791 9.79654 19.6517 8.62643 21.0224 7.31403C21.2758 7.07093 21.5281 6.8233 21.7591 6.55946C21.8818 6.4405 21.9622 6.28719 21.989 6.12253C21.989 6.12156 21.9897 6.12058 21.9897 6.11994C21.9911 6.11248 21.9918 6.10535 21.9924 6.0979C21.9938 6.09174 21.9945 6.08525 21.9952 6.0791C21.9959 6.07423 21.9962 6.07034 21.9969 6.06581C21.9976 6.05738 21.9983 6.04895 21.999 6.03988C21.9997 6.02659 22 6.01362 22 6.00033C21.9993 5.9864 21.9983 5.97343 21.9979 5.96047ZM11 10C8.791 10 7 8.20933 7 6C7 3.79067 8.79067 2 11 2C13.2093 2 15 3.791 15 6C15 8.20933 13.209 10 11 10Z" fill="white"/>
</svg>
