<svg width="50" height="24" viewBox="0 0 50 24" fill="none" xmlns="http://www.w3.org/2000/svg">
<path fill-rule="evenodd" clip-rule="evenodd" d="M31.4981 12.1116H31.158H25.9955V15.7423H30.4778C29.0738 17.6973 26.4228 18.6922 23.6846 17.5664C22.4638 17.0602 21.4784 16.0914 20.9639 14.8695C19.2896 10.8461 22.1935 6.98852 25.9955 6.98852C26.1699 6.98852 26.3444 6.99724 26.5188 7.0147C26.5362 7.0147 26.5536 7.01688 26.5711 7.01906C26.5885 7.02124 26.606 7.02343 26.6234 7.02343C26.6408 7.02343 26.6561 7.02561 26.6714 7.02779C26.6866 7.02997 26.7019 7.03215 26.7193 7.03215C26.7368 7.03652 26.7542 7.0387 26.7716 7.04088C26.7891 7.04306 26.8065 7.04525 26.824 7.04961C26.8414 7.05397 26.8567 7.05616 26.8719 7.05834C26.8872 7.06052 26.9025 7.0627 26.9199 7.06706C26.9373 7.07143 26.9548 7.07361 26.9722 7.07579C26.9897 7.07797 27.0071 7.08016 27.0245 7.08452C27.0405 7.08852 27.0547 7.09069 27.0679 7.0927C27.0834 7.09508 27.0976 7.09725 27.1117 7.10197C27.1466 7.1107 27.1815 7.11943 27.2164 7.11943C27.2425 7.12816 27.2774 7.13689 27.3036 7.13689C27.3385 7.14561 27.3734 7.15434 27.3995 7.16307C27.4126 7.16743 27.4279 7.1718 27.4431 7.17616C27.4584 7.18052 27.4736 7.18489 27.4867 7.18925C27.5042 7.19361 27.5194 7.19798 27.5347 7.20234C27.5499 7.20671 27.5652 7.21107 27.5826 7.21543C27.5957 7.2198 27.611 7.22416 27.6262 7.22853C27.6415 7.23289 27.6568 7.23725 27.6698 7.24162C27.7047 7.25034 27.7309 7.25907 27.7658 7.27653C27.7788 7.28089 27.7941 7.28525 27.8094 7.28962C27.8246 7.29398 27.8399 7.29835 27.853 7.30271C27.8704 7.30707 27.8857 7.31362 27.9009 7.32017C27.9162 7.32671 27.9315 7.33326 27.9489 7.33762C27.962 7.34198 27.9772 7.34853 27.9925 7.35508C28.0078 7.36162 28.023 7.36817 28.0361 7.37253C28.0535 7.37689 28.0688 7.38344 28.0841 7.38999C28.0993 7.39653 28.1146 7.40308 28.132 7.40744C28.1451 7.41181 28.1604 7.41835 28.1756 7.42489C28.1909 7.43144 28.2061 7.43799 28.2192 7.44235C28.2323 7.45108 28.2476 7.45763 28.2628 7.46417C28.2781 7.47072 28.2933 7.47726 28.3064 7.48599C28.317 7.48953 28.3276 7.49449 28.3388 7.49973C28.3552 7.50743 28.3729 7.51571 28.3936 7.5209C28.4067 7.52963 28.422 7.53617 28.4372 7.54272C28.4525 7.54926 28.4678 7.55581 28.4808 7.56454C28.4939 7.57327 28.507 7.57981 28.5201 7.58636C28.5332 7.5929 28.5462 7.59945 28.5593 7.60818C28.5855 7.62563 28.6204 7.64309 28.6465 7.65181C28.6596 7.66054 28.6727 7.66709 28.6858 7.67363C28.6988 7.68018 28.7119 7.68673 28.725 7.69545C28.7381 7.70418 28.7533 7.71291 28.7686 7.72164L28.7687 7.72166C28.7839 7.73038 28.7991 7.7391 28.8122 7.74782C28.8384 7.76527 28.8645 7.78273 28.8907 7.79146C29.1785 7.96601 29.4401 8.16674 29.693 8.39366L32.4922 5.5921C32.1434 5.26045 31.7684 4.96371 31.376 4.68443C31.3654 4.67386 31.3517 4.66649 31.3366 4.65844C31.3269 4.6532 31.3165 4.64767 31.3062 4.64079C31.2452 4.59715 31.1841 4.55351 31.1144 4.5186C31.0899 4.50023 31.0654 4.48616 31.038 4.47036L31.0379 4.47033C31.0262 4.46361 31.014 4.45659 31.001 4.44878C30.9705 4.42696 30.9378 4.40733 30.9051 4.38769C30.8724 4.36805 30.8397 4.34842 30.8092 4.3266C30.7957 4.31987 30.7823 4.31186 30.7684 4.30354L30.7684 4.30353C30.7461 4.29026 30.7226 4.27623 30.6958 4.2655C30.6609 4.24805 30.6282 4.22841 30.5955 4.20877C30.5628 4.18913 30.5301 4.1695 30.4952 4.15204L30.3906 4.09968C30.3557 4.08222 30.3208 4.06259 30.2859 4.04295C30.2511 4.02331 30.2162 4.00367 30.1813 3.98622C30.1723 3.98171 30.1639 3.9772 30.1557 3.97284C30.1323 3.96033 30.1112 3.94905 30.0854 3.94258C30.0069 3.90767 29.9284 3.87276 29.8587 3.83785C29.6581 3.75057 29.475 3.67203 29.2918 3.6022C29.2787 3.59784 29.2635 3.5913 29.2482 3.58475C29.233 3.5782 29.2177 3.57166 29.2046 3.56729C29.1699 3.55239 29.1323 3.54032 29.0935 3.52785C29.0642 3.51841 29.0341 3.50875 29.0041 3.49747L28.8471 3.44511L28.664 3.39274C28.6334 3.38401 28.6051 3.37529 28.5768 3.36656C28.5484 3.35783 28.5201 3.3491 28.4896 3.34038C28.4285 3.32292 28.3675 3.30547 28.3064 3.29674C28.2454 3.27928 28.1843 3.26183 28.1233 3.2531C28.0708 3.23809 28.0183 3.22953 27.9714 3.22188L27.9489 3.21819C27.8946 3.20265 27.8333 3.19403 27.7774 3.18617L27.757 3.18328C27.696 3.17455 27.6437 3.16582 27.5826 3.14837C27.5478 3.14401 27.5151 3.13746 27.4824 3.13091C27.4497 3.12437 27.417 3.11782 27.3821 3.11346C27.3516 3.1091 27.3232 3.10473 27.2949 3.10037L27.2948 3.10036C27.2665 3.096 27.2382 3.09164 27.2077 3.08728C27.1379 3.07855 27.0681 3.06982 27.0071 3.06109C26.9766 3.05673 26.9482 3.05455 26.9199 3.05237C26.8916 3.05018 26.8632 3.048 26.8327 3.04364C26.7978 3.03927 26.7629 3.03709 26.728 3.03491C26.6932 3.03273 26.6583 3.03055 26.6234 3.02618C26.606 3.02618 26.5885 3.024 26.5711 3.02182C26.5536 3.01964 26.5362 3.01746 26.5188 3.01746L26.4299 3.01352C26.268 3.00628 26.1274 3 25.9868 3C19.621 3 14.7114 9.28388 17.1357 16.0041C18.0513 18.5526 20.1006 20.5338 22.6556 21.4153C28.1146 23.283 33.2509 20.3243 34.9077 15.7074C35.1973 14.9033 35.1984 14.478 35.2004 13.7378V13.7378C35.2008 13.5862 35.2013 13.4214 35.2042 13.2375V12.5916V12.1116L31.4981 12.1116ZM36.7216 15.7249L36.3466 3.02618H40.3143L39.9481 15.7249H36.7216ZM40.3143 20.0188C40.3143 21.113 39.4281 22 38.3348 22C37.2416 22 36.3553 21.113 36.3553 20.0188C36.3553 18.9247 37.2416 18.0377 38.3348 18.0377C39.4281 18.0377 40.3143 18.9247 40.3143 20.0188ZM42.041 3.02618L42.4072 15.7249H45.6337L46 3.02618H42.041ZM46 20.0188C46 21.113 45.1137 22 44.0205 22C42.9272 22 42.041 21.113 42.041 20.0188C42.041 18.9247 42.9272 18.0377 44.0205 18.0377C45.1137 18.0377 46 18.9247 46 20.0188ZM14.6504 12.8447H15.1474H15.6445V13.3422V13.5168V13.8833V15.6725V16.17C15.6445 19.373 13.0284 22 9.81931 22H9.32225C5.84283 22 3 19.1548 3 15.6725V11.8323C3 8.35875 5.84283 5.50482 9.32225 5.50482C9.37513 5.50482 9.42612 5.50672 9.48052 5.50875C9.54274 5.51107 9.60941 5.51355 9.6885 5.51355C9.70594 5.51355 9.72338 5.51573 9.74082 5.51791C9.75826 5.5201 9.7757 5.52228 9.79315 5.52228C9.83116 5.52651 9.86713 5.52869 9.90205 5.5308C9.93921 5.53305 9.97518 5.53523 10.0112 5.53973C10.033 5.5441 10.0548 5.54628 10.0766 5.54846C10.0984 5.55064 10.1202 5.55282 10.142 5.55719C10.2117 5.56592 10.2728 5.57464 10.3338 5.58337L10.4646 5.60955C10.4875 5.61337 10.512 5.61885 10.5375 5.62455C10.5703 5.63188 10.6047 5.63955 10.639 5.64446C10.6765 5.65948 10.7205 5.66803 10.7598 5.67568C10.7662 5.67693 10.7724 5.67815 10.7785 5.67938C10.8047 5.6881 10.833 5.69465 10.8614 5.70119C10.8897 5.70774 10.9181 5.71429 10.9442 5.72301C10.9503 5.72424 10.9566 5.72546 10.963 5.7267C11.0023 5.73436 11.0463 5.74291 11.0838 5.75792C11.1448 5.77538 11.1971 5.79283 11.2494 5.81028L11.2494 5.81029C11.293 5.81902 11.3454 5.83647 11.389 5.85393L11.5459 5.90629C11.5982 5.92375 11.6418 5.9412 11.6854 5.95865L11.6855 5.95866C11.7116 5.96739 11.7356 5.9783 11.7596 5.98921C11.7836 6.00011 11.8075 6.01102 11.8337 6.01975C11.8555 6.02848 11.8773 6.03939 11.8991 6.0503C11.9209 6.06121 11.9427 6.07212 11.9645 6.08085C11.9907 6.09394 12.0147 6.10485 12.0386 6.11575C12.0626 6.12666 12.0866 6.13757 12.1128 6.15067C12.1346 6.16376 12.1564 6.17467 12.1782 6.18558C12.2 6.19649 12.2218 6.2074 12.2436 6.22049C12.2654 6.23358 12.2893 6.24667 12.3133 6.25976C12.3373 6.27285 12.3613 6.28594 12.3831 6.29904C12.4049 6.31213 12.4267 6.32304 12.4485 6.33395C12.4703 6.34486 12.4921 6.35576 12.5139 6.36886C12.5357 6.38195 12.5597 6.39722 12.5837 6.41249C12.6076 6.42777 12.6316 6.44304 12.6534 6.45613L12.6621 6.46486C12.7406 6.5085 12.8104 6.55214 12.8801 6.6045L12.8889 6.61323C12.9063 6.62632 12.9259 6.63941 12.9455 6.6525C12.9652 6.66559 12.9848 6.67869 13.0022 6.69178C13.0458 6.71796 13.0894 6.75286 13.133 6.78777L13.133 6.78778C13.1505 6.80087 13.1701 6.81615 13.1897 6.83142C13.2093 6.84669 13.229 6.86197 13.2464 6.87506C13.2813 6.90997 13.3249 6.94488 13.3685 6.97979C13.4034 7.00597 13.4382 7.03215 13.4731 7.06706L13.4731 7.06707C13.5167 7.11071 13.5516 7.14562 13.5952 7.18052C13.6214 7.19798 13.6388 7.21543 13.665 7.24162L13.8219 7.39871L13.8743 7.45108C13.8917 7.46853 13.907 7.48599 13.9222 7.50345C13.9375 7.5209 13.9527 7.53836 13.9702 7.55581C14.0748 7.66927 14.1795 7.79146 14.2667 7.92237L13.9527 8.23656L12.3744 9.81626L11.9732 10.2177C11.8599 10.0345 11.7203 9.8599 11.5721 9.7028L11.5198 9.65044C11.4936 9.62425 11.4675 9.60025 11.4413 9.57625C11.4151 9.55225 11.389 9.52825 11.3628 9.50207C10.953 9.15296 10.4646 8.89986 9.92395 8.79513C9.91523 8.7864 9.90651 8.7864 9.89779 8.7864C9.88035 8.78204 9.86509 8.77986 9.84983 8.77768C9.83457 8.77549 9.81931 8.77331 9.80187 8.76895C9.79315 8.76895 9.78442 8.76677 9.7757 8.76458C9.76698 8.7624 9.75826 8.76022 9.74954 8.76022C9.61002 8.74277 9.46177 8.73404 9.32225 8.73404C7.62178 8.73404 6.22653 10.1305 6.22653 11.8236V15.6638C6.22653 17.3656 7.62178 18.7621 9.32225 18.7621C10.2117 18.7621 11.0227 18.378 11.5895 17.7671L11.5895 17.7671C11.6244 17.7322 11.6593 17.6973 11.6855 17.6624L11.6942 17.6537C11.7291 17.6187 11.7552 17.5838 11.7814 17.5489L11.7901 17.5402C11.8032 17.5227 11.8163 17.5031 11.8293 17.4835C11.8424 17.4638 11.8555 17.4442 11.8686 17.4267V17.418C11.9471 17.2958 12.0256 17.1736 12.0866 17.0427C12.0866 17.034 12.0866 17.0253 12.0953 17.0165C12.104 16.9904 12.1215 16.9555 12.1389 16.9205L12.1389 16.9205C12.1433 16.9118 12.1455 16.9053 12.1476 16.8987C12.1498 16.8922 12.152 16.8856 12.1564 16.8769C12.1607 16.8638 12.1673 16.8485 12.1738 16.8333C12.1803 16.818 12.1869 16.8027 12.1912 16.7896C12.1956 16.7809 12.1978 16.7743 12.2 16.7678C12.2021 16.7613 12.2043 16.7547 12.2087 16.746C12.2228 16.7248 12.2312 16.698 12.2385 16.6747C12.2402 16.6691 12.2419 16.6637 12.2436 16.6587C12.2485 16.6538 12.2506 16.6462 12.2531 16.6373C12.255 16.6304 12.2572 16.6227 12.261 16.6151C12.2654 16.5976 12.2697 16.5823 12.2741 16.5671C12.2784 16.5518 12.2828 16.5365 12.2872 16.5191C12.2959 16.5103 12.3046 16.4929 12.3046 16.4754L12.3308 16.3707C12.3308 16.3663 12.3329 16.3598 12.3351 16.3532C12.3373 16.3467 12.3395 16.3401 12.3395 16.3358C12.3395 16.3271 12.3417 16.3161 12.3438 16.3052C12.346 16.2943 12.3482 16.2834 12.3482 16.2747C12.3656 16.1787 12.3831 16.0827 12.3918 15.978C12.3925 15.9706 12.3933 15.9634 12.394 15.9562C12.4019 15.8774 12.4092 15.8048 12.4092 15.7249H11.8599H11.232H9.81931H9.32225V15.2274V13.3422V12.8447H9.81931H11.232H12.418H12.915H13.9789H14.6504Z" fill="white"/>
</svg>
