<svg width="22" height="15" viewBox="0 0 22 15" fill="none" xmlns="http://www.w3.org/2000/svg">
<mask id="path-1-inside-1" fill="white">
<path fill-rule="evenodd" clip-rule="evenodd" d="M21.6569 0.265909C21.4744 0.102273 21.2345 0 20.9688 0H1.03125C0.765531 0 0.525937 0.102273 0.343062 0.265909L11 8.52273L21.6569 0.265909ZM0.307312 0.295227C0.117906 0.480682 0 0.738068 0 1.02273V13.9773C0 14.2462 0.106906 14.489 0.278094 14.6717L7.00494 6.72989L0.307312 0.295227ZM11 10.5682L8.20325 7.88148L0.324156 14.7188C0.509094 14.8923 0.756938 15 1.03125 15H20.9688C21.2431 15 21.4913 14.8923 21.6758 14.7188L13.7971 7.88148L11 10.5682ZM21.6923 0.295227L14.9951 6.72989L21.7219 14.6717C21.8931 14.4893 22 14.2462 22 13.9773V1.02273C22 0.738068 21.8821 0.480682 21.6923 0.295227Z"/>
</mask>
<path fill-rule="evenodd" clip-rule="evenodd" d="M21.6569 0.265909C21.4744 0.102273 21.2345 0 20.9688 0H1.03125C0.765531 0 0.525937 0.102273 0.343062 0.265909L11 8.52273L21.6569 0.265909ZM0.307312 0.295227C0.117906 0.480682 0 0.738068 0 1.02273V13.9773C0 14.2462 0.106906 14.489 0.278094 14.6717L7.00494 6.72989L0.307312 0.295227ZM11 10.5682L8.20325 7.88148L0.324156 14.7188C0.509094 14.8923 0.756938 15 1.03125 15H20.9688C21.2431 15 21.4913 14.8923 21.6758 14.7188L13.7971 7.88148L11 10.5682ZM21.6923 0.295227L14.9951 6.72989L21.7219 14.6717C21.8931 14.4893 22 14.2462 22 13.9773V1.02273C22 0.738068 21.8821 0.480682 21.6923 0.295227Z" fill="white"/>
<path d="M0.343062 0.265909L-0.990579 -1.22453L-2.77977 0.37644L-0.881867 1.8469L0.343062 0.265909ZM11 8.52273L9.77507 10.1037L11 11.0528L12.2249 10.1037L11 8.52273ZM0.278094 14.6717L-1.18146 16.0391L0.353317 17.6773L1.80422 15.9644L0.278094 14.6717ZM7.00494 6.72989L8.53106 8.02254L9.7452 6.5891L8.39055 5.28764L7.00494 6.72989ZM8.20325 7.88148L9.5888 6.43917L8.27178 5.17397L6.89243 6.37093L8.20325 7.88148ZM0.324156 14.7188L-0.98666 13.2082L-2.66057 14.6608L-1.04433 16.1773L0.324156 14.7188ZM21.6758 14.7188L23.0457 16.176L24.659 14.6595L22.9867 13.2082L21.6758 14.7188ZM13.7971 7.88148L15.1079 6.37096L13.7287 5.17402L12.4116 6.43909L13.7971 7.88148ZM14.9951 6.72989L13.6094 5.28768L12.2548 6.58914L13.4689 8.02254L14.9951 6.72989ZM21.7219 14.6717L20.1958 15.9644L21.6453 17.6757L23.1802 16.0404L21.7219 14.6717ZM22.992 -1.22328C22.4689 -1.69217 21.7615 -2 20.9688 -2V2C20.7074 2 20.4799 1.89672 20.3219 1.7551L22.992 -1.22328ZM20.9688 -2H1.03125V2H20.9688V-2ZM1.03125 -2C0.23747 -2 -0.468699 -1.69151 -0.990579 -1.22453L1.6767 1.75635C1.52057 1.89605 1.29359 2 1.03125 2V-2ZM-0.881867 1.8469L9.77507 10.1037L12.2249 6.94173L1.56799 -1.31509L-0.881867 1.8469ZM12.2249 10.1037L22.8819 1.8469L20.432 -1.31509L9.77507 6.94173L12.2249 10.1037ZM-1.09192 -1.13382C-1.64548 -0.591797 -2 0.172875 -2 1.02273H2C2 1.30326 1.8813 1.55316 1.70654 1.72427L-1.09192 -1.13382ZM-2 1.02273V13.9773H2V1.02273H-2ZM-2 13.9773C-2 14.7919 -1.67317 15.5142 -1.18146 16.0391L1.73764 13.3043C1.88699 13.4637 2 13.7006 2 13.9773H-2ZM1.80422 15.9644L8.53106 8.02254L5.47881 5.43724L-1.24803 13.3791L1.80422 15.9644ZM8.39055 5.28764L1.69293 -1.14702L-1.0783 1.73747L5.61932 8.17213L8.39055 5.28764ZM12.3856 9.12588L9.5888 6.43917L6.8177 9.32378L9.61445 12.0105L12.3856 9.12588ZM6.89243 6.37093L-0.98666 13.2082L1.63497 16.2293L9.51407 9.39203L6.89243 6.37093ZM-1.04433 16.1773C-0.509875 16.6787 0.220135 17 1.03125 17V13C1.29374 13 1.52806 13.1058 1.69264 13.2602L-1.04433 16.1773ZM1.03125 17H20.9688V13H1.03125V17ZM20.9688 17C21.7789 17 22.5102 16.6794 23.0457 16.176L20.306 13.2615C20.4724 13.1051 20.7073 13 20.9688 13V17ZM22.9867 13.2082L15.1079 6.37096L12.4862 9.392L20.365 16.2293L22.9867 13.2082ZM12.4116 6.43909L9.61454 9.12579L12.3855 12.0106L15.1826 9.32387L12.4116 6.43909ZM20.3067 -1.14698L13.6094 5.28768L16.3807 8.17209L23.078 1.73743L20.3067 -1.14698ZM13.4689 8.02254L20.1958 15.9644L23.248 13.3791L16.5212 5.43724L13.4689 8.02254ZM23.1802 16.0404C23.6739 15.5145 24 14.7909 24 13.9773H20C20 13.7016 20.1123 13.4642 20.2636 13.303L23.1802 16.0404ZM24 13.9773V1.02273H20V13.9773H24ZM24 1.02273C24 0.17269 23.6453 -0.59263 23.0903 -1.13508L20.2944 1.72554C20.1189 1.55399 20 1.30345 20 1.02273H24Z" fill="white" mask="url(#path-1-inside-1)"/>
</svg>
