<svg width="18" height="18" viewBox="0 0 18 18" fill="none" xmlns="http://www.w3.org/2000/svg">
<path fill-rule="evenodd" clip-rule="evenodd" d="M12.8907 11.4765C13.5892 10.4957 14 9.29583 14 8C14 4.68629 11.3137 2 8 2C4.68629 2 2 4.68629 2 8C2 11.3137 4.68629 14 8 14C9.29583 14 10.4957 13.5892 11.4765 12.8907L15.2924 16.7066C15.6829 17.0971 16.3161 17.0971 16.7066 16.7066C17.0971 16.3161 17.0971 15.6829 16.7066 15.2924L12.8907 11.4765ZM8 12C10.2091 12 12 10.2091 12 8C12 5.79086 10.2091 4 8 4C5.79086 4 4 5.79086 4 8C4 10.2091 5.79086 12 8 12Z" fill="white"/>
</svg>
