<svg width="21" height="19" viewBox="0 0 21 19" fill="none" xmlns="http://www.w3.org/2000/svg">
<path fill-rule="evenodd" clip-rule="evenodd" d="M0 7.96092C0 3.56426 4.83231 0 10.9359 0C17.0395 0 20.7597 3.56426 20.7597 7.96125C20.7597 8.38822 20.7246 8.80689 20.6556 9.21485C19.5555 7.86332 17.8785 7 16 7C12.6863 7 10 9.68629 10 13C10 14.0392 10.2642 15.0166 10.729 15.8689C10.3046 15.8476 9.88607 15.7657 9.47472 15.6852C9.23489 15.6383 8.99751 15.5918 8.76285 15.5582C5.92142 19.1503 1.44016 18.4437 1.44016 18.4437C4.60541 16.9455 4.54123 14.4642 3.97852 14.1336C1.49397 12.6739 0 10.4507 0 7.96092Z" fill="white"/>
</svg>
